/* XPM */
static char * pissCup_xpm[] = {
"24 27 9 1",
" 	c #ffffff",
".	c #604800",
"+	c #CB9500",
"@	c #F8BB0B",
"#	c #F7D76E",
"$	c #9AAD24",
"%	c #3A400E",
"&	c #697615",
"*	c #C9D47A",
"     ..............     ",
"  ...+@@@@####@@@@+...  ",
" ..++..............++.. ",
"$%#..................#%$",
"&%+###............###+%&",
"%%+#@@@#########@@@@++%%",
" .+@@@@@@@@&&@@@@@++++. ",
"  .@@@++@@&*$&@@+++++.  ",
"  .+@#@@++%&&%+++@@++.  ",
"   .+@#@@@+%%+@@@@++.   ",
"    .+@#@@@++@@@+++.    ",
"     ..++@@@@@+++..     ",
"       ..++++++..       ",
"         .++++.         ",
"         .@+++.         ",
"          .@+.          ",
"          .@+.          ",
"          .@+.          ",
"          .@+.          ",
"          .@+.          ",
"          .@+.          ",
"         .#@@+.         ",
"       ..##@@@+..       ",
"   ....#@@@@@++++....   ",
"  .+@@@@@+++++..@@+++.  ",
"   ...++@@@@@@@@++...   ",
"      ............      "};
