/* XPM */
static char * iceTileset_xpm[] = {
"65 65 7 1",
" 	c #CBDBFC",
".	c #5FCDE4",
"+	c #CBDBFC",
"@	c #FFFFFF",
"#	c #CBDBFC",
"$	c #CBDBFC",
"%	c #CBDBFC",
"                        .   .                           .   .   +",
"+                        .@@ .@                          .@@ .@+#",
"+                         .@@ .@                          .@@ .+#",
"+                          .@@ .@                          .@@ +#",
"+@                          .@@ .@                          .@@+#",
"+.@                          .@@ .@                          .@+#",
"+ .@                          .@@ .@                          .+#",
"@@ .@                          .@@ .@                          .+",
".@@ .@    @                     .@@ .@    @                     +",
"+..@ .@    @                     ..@ .@    @                   +#",
"+     .@   .@                         .@   .@                  +#",
"+      .    .@                         .    .@                 +#",
"+       .    .@        @                .    .@        @       +#",
"+             .@        @                     .@        @      +#",
"+              .@       @@      .              .@       @@     +#",
" .              .@      .@@      .              .@      .@@     +",
"  .              .@      .@@      .              .@      .@@    +",
"+  .              .@      .@@      .              .@      .@@  +#",
"+   .              .      ..@@      .              .      ..@@ +#",
"+    .              .      ..@@      .              .      ..@@+#",
"+     .                     ..@@      .                     ..@+#",
"+     ..                     ..@      ..                     ..+#",
"+      ..                     ..@      ..                     .+#",
".@      ..                     ..@      ..                     .+",
"..@      ..                     ..@      ..                     +",
"+..       ..                     ..       ..                   +#",
"+ ..       ..      @   @          ..       ..      @   @       +#",
"+  .        ..     .@@ .@          .        ..     .@@ .@      +#",
"+            ..     .@@ .@                   ..     .@@ .@     +#",
"+             ..     .@@ .@                   ..     .@@ .@    +#",
"+              .      .@@ .@                   .      .@@ .@   +#",
"                .      .@@ .@                   .      .@@ .@   +",
"                        .@@ .@                          .@@ .@  +",
"+                        .@@ .@                          .@@ .@+#",
"+                         .@@ .@                          .@@ .+#",
"+                          .@@ .@                          .@@ +#",
"+@                          .@@ .@                          .@@+#",
"+.@                          .@@ .@                          .@+#",
"+ .@                          .@@ .@                          .+#",
"@@ .@                          .@@ .@                          .+",
".@@ .@    @                     .@@ .@    @                     +",
"+..@ .@    @                     ..@ .@    @                   +#",
"+     .@   .@                         .@   .@                  +#",
"+      .    .@                         .    .@                 +#",
"+       .    .@        @                .    .@        @       +#",
"+             .@        @                     .@        @      +#",
"+              .@       @@      .              .@       @@     +#",
" .              .@      .@@      .              .@      .@@     +",
"  .              .@      .@@      .              .@      .@@    +",
"+  .              .@      .@@      .              .@      .@@  +#",
"+   .              .      ..@@      .              .      ..@@ +#",
"+    .              .      ..@@      .              .      ..@@+#",
"+     .                     ..@@      .                     ..@+#",
"+     ..                     ..@      ..                     ..+#",
"+      ..                     ..@      ..                     .+#",
".@      ..                     ..@      ..                     .+",
"..@      ..                     ..@      ..                     +",
"+..       ..                     ..       ..                   +#",
"+ ..       ..      @   @          ..       ..      @   @       +#",
"+  .        ..     .@@ .@          .        ..     .@@ .@      +#",
"+            ..     .@@ .@                   ..     .@@ .@     +#",
"+             ..     .@@ .@                   ..     .@@ .@    +#",
"+              .      .@@ .@                   .      .@@ .@   +#",
"                .      .@@ .@                   .      .@@ .@   +",
"++++$$$$$$$$$$$$++++++   +++++++++++%%%%%%%%++++++++++   %+++++++"};
