/* XPM */
static char * snow65Tileset_xpm[] = {
"65 65 4 1",
" 	c #FFFFFF",
".	c #CBDBFC",
"+	c #847E87",
"@	c #9BADB7",
"   ..    .+.  . . .... .... .@..   ..    .+.  . . .... .... .@.. ",
"          .      .           .            .      .           .   ",
".                                                                ",
".                                                                ",
"@.                       .                               .       ",
".                      . .          @@                 . .       ",
"                       . .         @..@                . .       ",
".                      .           .@..                .         ",
".   ...                .          ..  .                .         ",
".                                 ..                             ",
".    ....                         .                             .",
"                                                                 ",
".                                                                ",
".                                      @                         ",
".                                     @ @                        ",
".                                      @                         ",
" .                                                               ",
".                                                               .",
"                                       @                         ",
".                                     @ @                        ",
"                                       @                         ",
"                                                                 ",
".                                                                ",
"+.                                .                      ....    ",
".                                 ..                             ",
"              @        .          ..  .                    ...   ",
"             @ @       .           .@..                          ",
"      @..     @        . .         @..@                          ",
"     @..               . .          @@                           ",
".    @.@                 .                                      .",
".     @...                                                       ",
"        ...                                                      ",
"                 .                                               ",
"                  .                             .                ",
".                .                                     ...       ",
".                                                       ...@     ",
"@.                                                        @.@    ",
".                                                         ..@    ",
"                           @                       @     ..@     ",
".                         @ @                     @ @            ",
".   ...                    @                       @             ",
".                                         .                      ",
".    ....                               . .                     .",
"                                        . .                      ",
".                                       .                        ",
".                                                                ",
".                             .                                  ",
".                            . .                                 ",
" .                            .                                  ",
".                                                               .",
"                          @                                      ",
".                        @ @                                     ",
"                          @                                      ",
"                                                                 ",
".                                                                ",
"+.                             .                         ....    ",
".                             ..                                 ",
"          .                .  ..          .                ...   ",
"          .                ..@.           .                      ",
"      @ . .                @..@         . .                @     ",
"     @  . .                 @@          . .                 @    ",
".       .                               .                       .",
".                                                                ",
"                                                                 ",
"    .           .      .            .           .      .         "};
