/* XPM */
static char * Idle7_xpm[] = {
"47 51 35 1",
" 	c #ffffff",
".	c #C9C9C9",
"+	c #888888",
"@	c #9E9D9D",
"#	c #C2C2C2",
"$	c #A3A3A3",
"%	c #4B4747",
"&	c #4C5A5F",
"*	c #E2E2E2",
"=	c #F6F4F4",
"-	c #5D5D5D",
";	c #6E6B6B",
">	c #B5B5B5",
",	c #3C494D",
"'	c #A0A0A0",
")	c #838282",
"!	c #883636",
"~	c #757575",
"{	c #666666",
"]	c #9C9C9C",
"^	c #5C5959",
"/	c #7C7C7C",
"(	c #4B4B4B",
"_	c #667980",
":	c #515151",
"<	c #2E4453",
"[	c #1E2F3B",
"}	c #713030",
"|	c #A4AEB2",
"1	c #929CA0",
"2	c #333C3F",
"3	c #56666C",
"4	c #414E53",
"5	c #586A71",
"6	c #445358",
"                                               ",
"                                               ",
"    ..                                         ",
"     ...                                       ",
"       ...                                     ",
"        ....                                   ",
"          ....                                 ",
"            .+..                               ",
"             ..+...   @@@                      ",
"               #+++##@+@@@                     ",
"                ..++@++++@@                    ",
"                  .@++++++@@                   ",
"                  $++%%+++++@                  ",
"                  $++@@%%++++   &              ",
"                  $++++@@%%%*=. &              ",
"                  -++;++++++>==&,              ",
"                   ---+;')+>***=,  =           ",
"                   !!!--~;!>>**=={{{{          ",
"                   ]]!!!--!^{/>*>((({          ",
"                 ]]]{_!!!!!^{{/*>{((&          ",
"                ]]]{{___!!_^^{/>{{(,&&&        ",
"               ]]]{&&______>^{{/{(( ,,,        ",
"            ]]:]{{ <&&__&__>>^(({(             ",
"            ]]:{   <<&&&&&&>>^{{(              ",
"           ]:::    <<!&&&&>> >^^               ",
"          ]]]{     <<!!!<                      ",
"        ]{]]{{     <[!!}[||                    ",
"       ]{{{{{   |11[}}}[||||||||               ",
"      ]]{{{    |||111}}12111111|||             ",
"     {]]]     |||11233_4422222211||            ",
"     {{]{     ||111233__&444444221||           ",
"      {{]    ||1112333__&&&&&&&&&221|          ",
"             ||111233_ 444&&&&&&&&42|          ",
"            ||1112333   44444&&&&&&&2          ",
"            |||112333     4444444&&2&&&        ",
"            ||112333          44422&&&&&       ",
"           ||111233               222222       ",
"           ||11233                 444&&&      ",
"          ||11233                   444&&      ",
"          |11233                    444&&      ",
"        __23323                      44&&      ",
"       ___5222                       44&&      ",
"      ____555                         44&&     ",
"     __333                             44&     ",
"    _3333                               4&     ",
"    222                                 4&&    ",
"   _333                                  22    ",
"  __33                                   6&&   ",
" __33                                    66&&  ",
"___3                                     666&& ",
"3333                                     6666&&"};
