/* XPM */
static char * Idle4_xpm[] = {
"47 51 35 1",
" 	c #ffffff",
".	c #C9C9C9",
"+	c #888888",
"@	c #9E9D9D",
"#	c #C2C2C2",
"$	c #A3A3A3",
"%	c #4B4747",
"&	c #4C5A5F",
"*	c #5D5D5D",
"=	c #6E6B6B",
"-	c #3C494D",
";	c #A0A0A0",
">	c #838282",
",	c #F6F4F4",
"'	c #883636",
")	c #757575",
"!	c #666666",
"~	c #9C9C9C",
"{	c #5C5959",
"]	c #7C7C7C",
"^	c #4B4B4B",
"/	c #667980",
"(	c #515151",
"_	c #E2E2E2",
":	c #2E4453",
"<	c #1E2F3B",
"[	c #713030",
"}	c #A4AEB2",
"|	c #929CA0",
"1	c #333C3F",
"2	c #56666C",
"3	c #414E53",
"4	c #858585",
"5	c #586A71",
"6	c #445358",
"                                               ",
"    ..                                         ",
"     ...                                       ",
"       ...                                     ",
"        ....                                   ",
"          ....                                 ",
"            .+..                               ",
"             ..+...   @@@                      ",
"               #+++##@+@@@                     ",
"                ..++@++++@@                    ",
"                  .@++++++@@                   ",
"                  $++%%+++++@                  ",
"                  $++@@%%++++   &              ",
"                  $++++@@%%%+.. &              ",
"                  *++=+++++++++&-              ",
"                   ***+=;>+.++&&-              ",
"                  ,'''**)=' .+&&&!!!!          ",
"                  ,~~'''**'{!]&--^^^!          ",
"                 ~~~!/'''''{!!]  !^^&          ",
"                ~~~!!///''/{{!] !!^-&&&        ",
"               ~~~!&&////// {!!]!^^ ---        ",
"            ~~(~!!_:&&//&//  {^^!^             ",
"            ~~(!,,_::&&&&&&  {!!^              ",
"           ~(((  __::'&&&&    {{               ",
"          ~~~!     ::''':                      ",
"        ~!~~!!     :<''[<}}                    ",
"      ~~!!!!!   }||<[[[<}}}}}                  ",
"     !~!!!!    }}}|||[[|1|||}}}}               ",
"    ~!~!~~    }}}||1/2/33111|||}}              ",
"   4~!!   ~  }}}||12/2//&333111||}             ",
"    !~!      }}||12/22//&&&&&3311|}            ",
"            }}||122/2/333&&&&&&&31|}           ",
"           }}}}|12/22  3333&&&&&&3|}           ",
"           }}}|12/22     3333&&&&&&1           ",
"          }}}||2/22       333333&&1&&          ",
"          }}||1/22           33311&&&&         ",
"         }}||1/22                31&&&         ",
"         }||12/2                  31111        ",
"           2212                    33&&&       ",
"          1221                     333&&       ",
"         /5112                     333&&&      ",
"       ///555                       333&&      ",
"     ////22                          33&&&     ",
"     ///22                            33&&     ",
"    //222                              33&     ",
"   1112                                 1&&    ",
"  //22                                   11    ",
" ///2                                    6&&   ",
" //22                                    66&&  ",
"///2                                     666&& ",
"2222                                     6666&&"};
