/* XPM */
static char * Idle5_xpm[] = {
"47 51 33 1",
" 	c #ffffff",
".	c #C9C9C9",
"+	c #888888",
"@	c #9E9D9D",
"#	c #C2C2C2",
"$	c #A3A3A3",
"%	c #4B4747",
"&	c #4C5A5F",
"*	c #5D5D5D",
"=	c #6E6B6B",
"-	c #3C494D",
";	c #A0A0A0",
">	c #838282",
",	c #883636",
"'	c #757575",
")	c #B5B5B5",
"!	c #666666",
"~	c #9C9C9C",
"{	c #5C5959",
"]	c #7C7C7C",
"^	c #4B4B4B",
"/	c #667980",
"(	c #515151",
"_	c #2E4453",
":	c #1E2F3B",
"<	c #713030",
"[	c #A4AEB2",
"}	c #929CA0",
"|	c #333C3F",
"1	c #56666C",
"2	c #414E53",
"3	c #586A71",
"4	c #445358",
"                                               ",
"                                               ",
"    ..                                         ",
"     ...                                       ",
"       ...                                     ",
"        ....                                   ",
"          ....                                 ",
"            .+..                               ",
"             ..+...   @@@                      ",
"               #+++##@+@@@                     ",
"                ..++@++++@@                    ",
"                  .@++++++@@                   ",
"                  $++%%+++++@                  ",
"                  $++@@%%++++   &              ",
"                  $++++@@%%%+.. &              ",
"                  *++=+++++++++&-              ",
"                   ***+=;>+.++&&-              ",
"                   ,,,**'=,).+&&&!!!!          ",
"                   ~~,,,**,{!]&--^^^!          ",
"                 ~~~!/,,,,,{!!]  !^^&          ",
"                ~~~!!///,,/{{!] !!^-&&&        ",
"               ~~~!&&//////){!!]!^^ ---        ",
"            ~~(~!! _&&//&//)){^^!^             ",
"            ~~(!   __&&&&&&)){!!^              ",
"           ~(((    __,&&&&))  {{               ",
"          ~~~!     __,,,_                      ",
"        ~!~~!!     _:,,<:[[                    ",
"      ~~!!!!!   [}}:<<<:[[[[[[[[               ",
"     !~!!!!    [[[}}}<<}|}}}}}}[[[             ",
"    ~!~!~~    [[[}}|11/22||||||}}[[            ",
"    !~!!~~    [[}}}|11//&222222||}[[           ",
"     ~!!~    [[}}}|111//&&&&&&&&&||}[          ",
"             [[}}}|11/ 222&&&&&&&&2|[          ",
"            [[}}}|111   22222&&&&&&&|          ",
"            [[[}}|111     2222222&&|&&&        ",
"            [[}}|111          222||&&&&&       ",
"           [[}}}|11               ||||||       ",
"           [[}}|11                 222&&&      ",
"          [[}}|11                   222&&      ",
"          [}}|11                    222&&      ",
"        //|11|1                      22&&      ",
"       ///3|||                       22&&      ",
"      ////333                         22&&     ",
"     //111                             22&     ",
"    /1111                               2&     ",
"    |||                                 2&&    ",
"   /111                                  ||    ",
"  //11                                   4&&   ",
" //11                                    44&&  ",
"///1                                     444&& ",
"1111                                     4444&&"};
