/* XPM */
static char * Idle9_xpm[] = {
"47 51 35 1",
" 	c #ffffff",
".	c #C9C9C9",
"+	c #888888",
"@	c #9E9D9D",
"#	c #C2C2C2",
"$	c #A3A3A3",
"%	c #4B4747",
"&	c #4C5A5F",
"*	c #5D5D5D",
"=	c #6E6B6B",
"-	c #3C494D",
";	c #A0A0A0",
">	c #838282",
",	c #883636",
"'	c #757575",
")	c #666666",
"!	c #9C9C9C",
"~	c #5C5959",
"{	c #7C7C7C",
"]	c #4B4B4B",
"^	c #667980",
"/	c #E2E2E2",
"(	c #515151",
"_	c #2E4453",
":	c #B5B5B5",
"<	c #F6F4F4",
"[	c #1E2F3B",
"}	c #713030",
"|	c #A4AEB2",
"1	c #929CA0",
"2	c #333C3F",
"3	c #56666C",
"4	c #414E53",
"5	c #586A71",
"6	c #445358",
"                                               ",
"    ..                                         ",
"     ...                                       ",
"       ...                                     ",
"        ....                                   ",
"          ....                                 ",
"            .+..                               ",
"             ..+...   @@@                      ",
"               #+++##@+@@@                     ",
"                ..++@++++@@                    ",
"                  .@++++++@@                   ",
"                  $++%%+++++@                  ",
"                  $++@@%%++++   &              ",
"                  $++++@@%%%+.. &              ",
"                  *++=+++++++++&-              ",
"                   ***+=;>+.++&&-              ",
"                   ,,,**'=, .+&&&))))          ",
"                   !!,,,**,~){&--]]])          ",
"                 !!!)^,,,,,~)){  )]]&          ",
"                !!!))^^^,,^~~){ ))]-&&&        ",
"               !!!)&&^^^^^^/~)){)]] ---        ",
"            !!(!)) _&&^^&^^:<~]])]             ",
"            !!()   __&&&&&&:/~))]              ",
"           !(((    __,&&&&::::~~               ",
"          !!!)     __,,,_::::                  ",
"        !)!!))     _[,,}[||                    ",
"       !)))))   |11[}}}[|||||                  ",
"      !!)))    |||111}}12111||||               ",
"     )!!!     |||112^3^44222111||              ",
"     ))!)    |||1123^3^^&44422211|             ",
"      ))!    ||1123^33^^&&&&&44221|            ",
"            ||11233^3^444&&&&&&&421|           ",
"           ||||123^33  4444&&&&&&41|           ",
"           |||123^33     4444&&&&&&2           ",
"          |||113^33       444444&&2&&          ",
"          ||112^33           44422&&&&         ",
"         ||112^33                42&&&         ",
"         |1123^3                  42222        ",
"           3323                    44&&&       ",
"          2332                     444&&       ",
"         ^5223                     444&&&      ",
"       ^^^555                       444&&      ",
"     ^^^^33                          44&&&     ",
"     ^^^33                            44&&     ",
"    ^^333                              44&     ",
"   2223                                 2&&    ",
"  ^^33                                   22    ",
" ^^^3                                    6&&   ",
" ^^33                                    66&&  ",
"^^^3                                     666&& ",
"3333                                     6666&&"};
