/* XPM */
static char * Idle10_xpm[] = {
"47 51 36 1",
" 	c #ffffff",
".	c #C9C9C9",
"+	c #888888",
"@	c #9E9D9D",
"#	c #C2C2C2",
"$	c #A3A3A3",
"%	c #4B4747",
"&	c #4C5A5F",
"*	c #5D5D5D",
"=	c #6E6B6B",
"-	c #3C494D",
";	c #F6F4F4",
">	c #A0A0A0",
",	c #838282",
"'	c #883636",
")	c #757575",
"!	c #666666",
"~	c #9C9C9C",
"{	c #5C5959",
"]	c #7C7C7C",
"^	c #4B4B4B",
"/	c #667980",
"(	c #515151",
"_	c #E2E2E2",
":	c #2E4453",
"<	c #B5B5B5",
"[	c #1E2F3B",
"}	c #713030",
"|	c #A4AEB2",
"1	c #929CA0",
"2	c #333C3F",
"3	c #858585",
"4	c #414E53",
"5	c #56666C",
"6	c #586A71",
"7	c #445358",
"    ..                                         ",
"     ...                                       ",
"       ...                                     ",
"        ....                                   ",
"          ....                                 ",
"            .+..                               ",
"             ..+...   @@@                      ",
"               #+++##@+@@@                     ",
"                ..++@++++@@                    ",
"                  .@++++++@@                   ",
"                  $++%%+++++@                  ",
"                  $++@@%%++++   &              ",
"                  $++++@@%%%+.. &              ",
"                  *++=+++++++++&-              ",
"                  ;***+=>,+.++&&-              ",
"                 ;;'''**)=' .+&&&!!!!          ",
"                 ;;~~'''**'{!]&--^^^!          ",
"                 ~~~!/'''''{!!]  !^^&          ",
"                ~~~!!///''/{{!] !!^-&&&        ",
"               ~~~!&&////// {!!]!^^ ---        ",
"            ~~(~!!_:&&//&//  {^^!^             ",
"            ~~(!;__::&&&&&&  {!!^              ",
"           ~((( ;__::'&&&&    {{               ",
"          ~~~!  ;;_::''':<                     ",
"        ~!~~!!     :[''}[                      ",
"      ~~!!!!!     [[}}}[||||                   ",
"     !~!!!!      |111}}11||||                  ",
"    ~!~!~~     ||||111/22111||                 ",
"   3~!!   ~   ||||112///42221||                ",
"    !~!       |||1125///&444211|               ",
"            ||||1125//&&&&&&4221|              ",
"           ||||112555444&&&&&4421|             ",
"           |||1125/5  4444&&&&&421|            ",
"          |||1125/55    4444&&&&41|            ",
"          ||1125/55      4444&&&&&             ",
"         ||1125/55         4444&&2&&           ",
"         |1125/55            4422&&&&          ",
"          225255                42&&&          ",
"         2/552                   42222         ",
"        /6225                     44&&&        ",
"       //666                      444&&        ",
"      //655                        444&&       ",
"     ///55                          444&&      ",
"     /555                             4&&      ",
"    //5                                44&     ",
"   222                                  2&&    ",
"  //55                                   22    ",
" ///5                                    7&&   ",
" //55                                    77&&  ",
"///5                                     777&& ",
"5555                                     7777&&"};
